<?xml version="1.0" encoding="UTF-8"?>
<svg width="106px" height="64px" viewBox="0 0 106 64" version="1.1" xmlns="http://www.w3.org/2000/svg" xmlns:xlink="http://www.w3.org/1999/xlink">
    <!-- Generator: Sketch 41.2 (35397) - http://www.bohemiancoding.com/sketch -->
    <title>logo/footer/normal</title>
    <desc>Created with Sketch.</desc>
    <defs></defs>
    <g id="elements" stroke="none" stroke-width="1" fill="none" fill-rule="evenodd">
        <g transform="translate(-51.000000, -570.000000)" id="logo/footer/normal" fill="#FFFFFF">
            <g transform="translate(51.000000, 570.000000)">
                <g id="Group-3">
                    <path d="M100.44684,17.9923723 C100.380872,17.9872979 100.244426,18.0436809 100.112489,18.0340957 C99.7166809,18.0053404 99.4015,17.7837553 99.2323511,17.3738511 C97.4568511,12.6038511 93.1700532,8.64689362 87.6648191,6.85504255 C87.1466596,6.68476596 86.8551596,6.13334043 87.0254362,5.61518085 C87.1957128,5.09702128 87.7471383,4.80552128 88.2652979,4.97579787 C94.283617,7.00389362 99.0694043,11.395 101.004468,16.7068404 C101.164032,17.2486809 100.927787,17.761766 100.44684,17.9923723 L100.44684,17.9923723 Z M26.2502234,41.3135 L25.9198191,41.3135 C13.6875319,41.3135 3.70267021,32.9823511 3.70267021,22.6670851 C3.70267021,12.4183511 13.621,4.02067021 25.9198191,4.02067021 L26.0523191,4.02067021 L26.1842553,4.02067021 L52.2439043,4.02067021 L52.1880851,41.3135 L26.2502234,41.3135 L26.2502234,41.3135 Z M81.7981702,0.383968085 L81.0048617,0.383968085 L80.6084894,0.383968085 L26.1182872,0.383968085 L25.9857872,0.383968085 L25.8538511,0.383968085 C11.5714787,0.383968085 0,10.368266 0,22.6670851 C0,34.9659043 11.6374468,44.9502021 25.8538511,44.9502021 L80.5425213,44.9502021 L80.9388936,44.9502021 L81.7322021,44.9502021 C94.9534468,44.9502021 105.728798,34.9145957 105.728798,22.6338191 C105.728798,10.3536064 95.0194149,0.383968085 81.7981702,0.383968085 L81.7981702,0.383968085 Z" id="Fill-1"></path>
                </g>
                <path d="M44.0418723,24.3540638 C43.1160638,24.3540638 42.3887234,23.6267234 42.3887234,22.7009149 C42.3887234,21.7751064 43.1160638,21.047766 44.0418723,21.047766 C44.9676809,21.047766 45.6950213,21.7751064 45.6950213,22.7009149 C45.6950213,23.6267234 44.9676809,24.3540638 44.0418723,24.3540638 L44.0418723,24.3540638 Z M25.8583617,10.6005638 C25.2635213,10.6005638 24.7340851,10.0716915 24.7340851,9.47628723 C24.7340851,8.88144681 25.2635213,8.35257447 25.8583617,8.35257447 C26.4532021,8.35257447 26.9826383,8.88144681 26.9826383,9.47628723 C26.9826383,10.0716915 26.4532021,10.6005638 25.8583617,10.6005638 L25.8583617,10.6005638 Z M44.0418723,19.0642128 C43.0799787,19.0642128 42.1981489,19.4549468 41.5424149,20.0813617 L28.1407447,10.2763617 C28.2416702,10.0079787 28.3048191,9.71929787 28.3048191,9.41031915 C28.3048191,8.02160638 27.1811064,6.9638617 25.8583617,6.9638617 C24.4696489,6.9638617 23.4119043,8.08757447 23.4119043,9.41031915 C23.4119043,10.7990319 24.5361809,11.8567766 25.8583617,11.8567766 C26.4165532,11.8567766 26.9330213,11.66 27.351383,11.3374894 L40.7648936,21.1515106 C40.5371064,21.624 40.4051702,22.1483617 40.4051702,22.7009149 C40.4051702,23.2280957 40.5247021,23.7304681 40.733883,24.1860426 L27.3807021,33.492617 C26.9578298,33.1560106 26.4300851,32.9496489 25.8583617,32.9496489 C24.4696489,32.9496489 23.4119043,34.0739255 23.4119043,35.3961064 C23.4119043,36.7848191 24.5361809,37.8425638 25.8583617,37.8425638 C27.1811064,37.8425638 28.3048191,36.7188511 28.3048191,35.3961064 C28.3048191,35.1012234 28.2450532,34.8255106 28.1520213,34.5672766 L41.4894149,25.2714149 C42.1496596,25.9277128 43.0546064,26.337617 44.0418723,26.337617 C46.0919574,26.337617 47.6785745,24.6844681 47.6785745,22.7009149 C47.6785745,20.7173617 46.0254255,19.0642128 44.0418723,19.0642128 L44.0418723,19.0642128 Z" id="Fill-4"></path>
                <path d="M15.6096277,30.7016596 C15.244266,30.7016596 14.9482553,30.9976702 14.9482553,31.3630319 C14.9482553,31.7278298 15.244266,32.0238404 15.6096277,32.0238404 C15.9744255,32.0238404 16.2704362,31.7278298 16.2704362,31.3630319 C16.2704362,30.9976702 15.9744255,30.7016596 15.6096277,30.7016596" id="Fill-5"></path>
                <path d="M12.6342979,27.1309255 C12.0129574,27.1309255 11.5100213,27.6344255 11.5100213,28.2552021 C11.5100213,28.8759787 12.0129574,29.3789149 12.6342979,29.3789149 C13.2545106,29.3789149 13.7580106,28.8759787 13.7580106,28.2552021 C13.7580106,27.6344255 13.2545106,27.1309255 12.6342979,27.1309255" id="Fill-6"></path>
                <path d="M11.2455851,20.2544574 C10.0553404,20.2544574 9.12953191,21.180266 9.12953191,22.3699468 C9.12953191,23.5601915 10.0553404,24.486 11.2455851,24.486 C12.4358298,24.486 13.3610745,23.5601915 13.3610745,22.3699468 C13.3610745,21.1797021 12.4358298,20.2544574 11.2455851,20.2544574" id="Fill-7"></path>
                <path d="M18.8031596,53.3946809 C18.8031596,53.3382979 18.8595426,53.2819149 18.9159255,53.2819149 C18.9723085,53.2255319 19.0286915,53.2255319 19.1414574,53.2255319 L19.4233723,53.2255319 C19.4797553,53.2255319 19.5361383,53.2255319 19.5925213,53.2819149 C19.6489043,53.3382979 19.6489043,53.3946809 19.6489043,53.4510638 L19.6489043,53.6202128 L17.731883,59.9351064 C17.6755,60.0478723 17.619117,60.1606383 17.562734,60.2170213 C17.5063511,60.2734043 17.3935851,60.2734043 17.2808191,60.2734043 L17.0552872,60.2734043 C16.8297553,60.2734043 16.6606064,60.1606383 16.6042234,59.9351064 L14.912734,54.5787234 L13.2212447,59.9351064 C13.1648617,60.1606383 12.9957128,60.2734043 12.7701809,60.2734043 L12.5446489,60.2734043 C12.431883,60.2734043 12.319117,60.2734043 12.262734,60.2170213 C12.2063511,60.1606383 12.1499681,60.1042553 12.0935851,59.9351064 L10.1765638,53.6202128 L10.1765638,53.4510638 C10.1765638,53.3946809 10.1765638,53.3382979 10.2329468,53.2819149 C10.2893298,53.2255319 10.3457128,53.2255319 10.4020957,53.2255319 L10.6840106,53.2255319 C10.7403936,53.2255319 10.8531596,53.2255319 10.9095426,53.2819149 C10.9659255,53.3382979 11.0223085,53.3946809 11.0223085,53.3946809 L12.7137979,59.0329787 L14.5180532,53.4510638 C14.5180532,53.3946809 14.5744362,53.3382979 14.6308191,53.2819149 C14.6872021,53.2255319 14.7999681,53.2255319 14.8563511,53.2255319 L15.138266,53.2255319 C15.2510319,53.2255319 15.3074149,53.2255319 15.3637979,53.2819149 C15.4201809,53.3382979 15.4765638,53.3946809 15.4765638,53.4510638 L17.2808191,59.0329787 L18.8031596,53.3946809" id="Fill-8"></path>
                <g id="Group-12" transform="translate(20.861702, 50.180851)">
                    <path d="M1.15528723,9.97978723 C1.09890426,10.0361702 1.04252128,10.0361702 0.929755319,10.0361702 L0.704223404,10.0361702 C0.591457447,10.0361702 0.535074468,10.0361702 0.478691489,9.97978723 C0.422308511,9.92340426 0.422308511,9.86702128 0.422308511,9.75425532 L0.422308511,3.27021277 C0.422308511,3.15744681 0.422308511,3.10106383 0.478691489,3.04468085 C0.535074468,2.98829787 0.591457447,2.98829787 0.704223404,2.98829787 L0.929755319,2.98829787 C1.04252128,2.98829787 1.09890426,2.98829787 1.15528723,3.04468085 C1.21167021,3.10106383 1.21167021,3.15744681 1.21167021,3.27021277 L1.21167021,9.75425532 C1.26805319,9.86702128 1.21167021,9.92340426 1.15528723,9.97978723 L1.15528723,9.97978723 Z M1.32443617,1.46595745 C1.26805319,1.52234043 1.21167021,1.52234043 1.09890426,1.52234043 L0.591457447,1.52234043 C0.478691489,1.52234043 0.422308511,1.52234043 0.365925532,1.46595745 C0.309542553,1.40957447 0.309542553,1.35319149 0.309542553,1.24042553 L0.309542553,0.732978723 C0.309542553,0.620212766 0.309542553,0.563829787 0.365925532,0.507446809 C0.422308511,0.45106383 0.478691489,0.394680851 0.591457447,0.394680851 L1.09890426,0.394680851 C1.21167021,0.394680851 1.26805319,0.45106383 1.32443617,0.507446809 C1.38081915,0.563829787 1.43720213,0.620212766 1.43720213,0.732978723 L1.43720213,1.24042553 C1.38081915,1.35319149 1.38081915,1.40957447 1.32443617,1.46595745 L1.32443617,1.46595745 Z" id="Fill-9"></path>
                    <path d="M8.25954255,6.0893617 L8.25954255,6.0893617 C8.25954255,5.35638298 8.03401064,4.73617021 7.69571277,4.28510638 C7.30103191,3.83404255 6.79358511,3.60851064 6.11698936,3.60851064 C5.44039362,3.60851064 4.93294681,3.83404255 4.53826596,4.28510638 C4.14358511,4.73617021 3.97443617,5.3 3.97443617,6.03297872 L3.97443617,6.0893617 L8.25954255,6.0893617 L8.25954255,6.0893617 Z M8.31592553,3.77765957 C8.82337234,4.39787234 9.10528723,5.24361702 9.10528723,6.3712766 L9.10528723,6.59680851 C9.10528723,6.70957447 9.04890426,6.76595745 8.99252128,6.82234043 C8.9361383,6.8787234 8.87975532,6.8787234 8.76698936,6.8787234 L3.91805319,6.8787234 L3.91805319,6.99148936 C3.91805319,7.44255319 4.03081915,7.83723404 4.19996809,8.17553191 C4.36911702,8.57021277 4.65103191,8.85212766 4.93294681,9.07765957 C5.27124468,9.30319149 5.60954255,9.41595745 6.06060638,9.41595745 C6.56805319,9.41595745 6.96273404,9.30319149 7.30103191,9.13404255 C7.63932979,8.96489362 7.8648617,8.7393617 7.97762766,8.57021277 C8.03401064,8.45744681 8.1467766,8.40106383 8.1467766,8.34468085 C8.20315957,8.34468085 8.25954255,8.28829787 8.37230851,8.28829787 L8.59784043,8.28829787 C8.6542234,8.28829787 8.76698936,8.28829787 8.82337234,8.34468085 C8.87975532,8.40106383 8.87975532,8.45744681 8.87975532,8.51382979 C8.87975532,8.68297872 8.76698936,8.85212766 8.59784043,9.07765957 C8.42869149,9.30319149 8.1467766,9.5287234 7.80847872,9.69787234 C7.47018085,9.86702128 7.0755,10.0361702 6.68081915,10.0925532 C6.39890426,10.1489362 6.17337234,10.2617021 6.0042234,10.4308511 C5.83507447,10.6 5.77869149,10.8255319 5.77869149,11.1638298 C5.77869149,11.5021277 5.89145745,11.7840426 6.06060638,11.9531915 C6.22975532,12.1223404 6.51167021,12.2351064 6.79358511,12.2351064 L7.01911702,12.2351064 C7.13188298,12.2351064 7.18826596,12.2351064 7.24464894,12.2914894 C7.30103191,12.3478723 7.30103191,12.4042553 7.30103191,12.5170213 L7.30103191,12.6861702 C7.30103191,12.7989362 7.30103191,12.8553191 7.24464894,12.9117021 C7.18826596,12.9680851 7.13188298,12.9680851 7.01911702,12.9680851 L6.73720213,12.9680851 C6.17337234,12.9680851 5.72230851,12.7989362 5.44039362,12.4606383 C5.10209574,12.1223404 4.93294681,11.6712766 4.93294681,11.1074468 C4.93294681,10.656383 5.04571277,10.3180851 5.2148617,10.0361702 C4.59464894,9.86702128 4.08720213,9.5287234 3.69252128,8.96489362 C3.29784043,8.45744681 3.12869149,7.78085106 3.07230851,6.99148936 L3.07230851,5.86382979 C3.12869149,4.90531915 3.46698936,4.17234043 3.97443617,3.60851064 C4.48188298,3.04468085 5.2148617,2.76276596 6.06060638,2.76276596 C7.01911702,2.87553191 7.75209574,3.15744681 8.31592553,3.77765957 L8.31592553,3.77765957 Z" id="Fill-11"></path>
                </g>
                <path d="M32.8425213,58.9765957 C33.2372021,59.3712766 33.7446489,59.5404255 34.4212447,59.5404255 C34.9286915,59.5404255 35.3233723,59.4276596 35.6616702,59.2021277 C35.9999681,58.9765957 36.2255,58.6382979 36.3946489,58.1308511 C36.4510319,58.0180851 36.5074149,57.9617021 36.5074149,57.9053191 C36.5074149,57.8489362 36.6201809,57.8489362 36.6765638,57.8489362 L36.8457128,57.8489362 C36.9020957,57.8489362 37.0148617,57.9053191 37.0712447,57.9617021 C37.1276277,58.0180851 37.1840106,58.0744681 37.1276277,58.187234 C37.1276277,58.5255319 37.0148617,58.8638298 36.7893298,59.2021277 C36.5637979,59.5404255 36.281883,59.8223404 35.8308191,59.9914894 C35.3797553,60.1606383 34.8723085,60.3297872 34.3084787,60.3297872 C33.3499681,60.3297872 32.6169894,60.0478723 32.1095426,59.4840426 C31.6020957,58.9202128 31.3201809,58.187234 31.3201809,57.1723404 L31.3201809,56.0446809 C31.3201809,55.0297872 31.6020957,54.2968085 32.1095426,53.7329787 C32.6169894,53.1691489 33.3499681,52.887234 34.3084787,52.887234 C34.9286915,52.887234 35.4361383,53 35.8308191,53.2255319 C36.2255,53.4510638 36.5637979,53.7329787 36.7893298,54.0148936 C37.0148617,54.3531915 37.1276277,54.6914894 37.1276277,55.0297872 C37.1276277,55.0861702 37.1276277,55.1989362 37.0712447,55.2553191 C37.0148617,55.3117021 36.9584787,55.3680851 36.8457128,55.3680851 L36.6765638,55.3680851 C36.5637979,55.3680851 36.5074149,55.3680851 36.5074149,55.3117021 C36.4510319,55.2553191 36.4510319,55.1989362 36.3946489,55.0861702 C36.2255,54.5787234 35.9435851,54.2404255 35.6616702,54.0148936 C35.3233723,53.7893617 34.9286915,53.6765957 34.4212447,53.6765957 C33.7446489,53.6765957 33.2372021,53.8457447 32.8425213,54.2404255 C32.4478404,54.6351064 32.2786915,55.2553191 32.2223085,56.0446809 L32.2223085,56.9468085 C32.2786915,58.0180851 32.5042234,58.5819149 32.8425213,58.9765957" id="Fill-13"></path>
                <path d="M43.8372021,56.2702128 L43.8372021,56.2702128 C43.8372021,55.537234 43.6680532,54.9170213 43.2733723,54.4659574 C42.8786915,54.0148936 42.3712447,53.7893617 41.6946489,53.7893617 C41.0180532,53.7893617 40.5106064,54.0148936 40.1159255,54.4659574 C39.7212447,54.9170213 39.5520957,55.4808511 39.5520957,56.2138298 L39.5520957,56.2702128 L43.8372021,56.2702128 L43.8372021,56.2702128 Z M43.8372021,53.9585106 C44.3446489,54.5787234 44.6265638,55.4244681 44.6265638,56.5521277 L44.6265638,56.7776596 C44.6265638,56.8904255 44.5701809,56.9468085 44.5137979,57.0031915 C44.4574149,57.0595745 44.4010319,57.0595745 44.288266,57.0595745 L39.4393298,57.0595745 L39.4393298,57.1723404 C39.4393298,57.6234043 39.5520957,58.0180851 39.7212447,58.356383 C39.8903936,58.7510638 40.1723085,59.0329787 40.4542234,59.2585106 C40.7925213,59.4840426 41.1308191,59.5968085 41.581883,59.5968085 C42.0893298,59.5968085 42.4840106,59.4840426 42.8223085,59.3148936 C43.1606064,59.1457447 43.3861383,58.9202128 43.4989043,58.7510638 C43.5552872,58.6382979 43.6680532,58.5819149 43.6680532,58.5255319 C43.7244362,58.5255319 43.7808191,58.4691489 43.8935851,58.4691489 L44.119117,58.4691489 C44.1755,58.4691489 44.288266,58.4691489 44.3446489,58.5255319 C44.4010319,58.5819149 44.4010319,58.6382979 44.4010319,58.6946809 C44.4010319,58.8638298 44.288266,59.0893617 44.062734,59.3712766 C43.8372021,59.6531915 43.4989043,59.8787234 43.0478404,60.0478723 C42.5967766,60.2170213 42.1457128,60.3297872 41.581883,60.3297872 C40.7361383,60.3297872 40.0031596,60.0478723 39.4957128,59.4840426 C38.988266,58.9202128 38.6499681,58.187234 38.5935851,57.2287234 L38.5935851,56.1010638 C38.6499681,55.1425532 38.988266,54.4095745 39.4957128,53.8457447 C40.0031596,53.2819149 40.7361383,53 41.581883,53 C42.5967766,53.056383 43.3297553,53.3382979 43.8372021,53.9585106 L43.8372021,53.9585106 Z" id="Fill-14"></path>
                <path d="M47.4457128,51.6468085 C47.3893298,51.7031915 47.3329468,51.7031915 47.2201809,51.7031915 L46.712734,51.7031915 C46.5999681,51.7031915 46.5435851,51.7031915 46.4872021,51.6468085 C46.4308191,51.5904255 46.4308191,51.5340426 46.4308191,51.4212766 L46.4308191,50.9138298 C46.4308191,50.8010638 46.4308191,50.7446809 46.4872021,50.6882979 C46.5435851,50.6319149 46.5999681,50.5755319 46.712734,50.5755319 L47.2201809,50.5755319 C47.3329468,50.5755319 47.3893298,50.6319149 47.4457128,50.6882979 C47.5020957,50.7446809 47.5584787,50.8010638 47.5584787,50.9138298 L47.5584787,51.4212766 C47.5584787,51.5340426 47.5020957,51.5904255 47.4457128,51.6468085 L47.4457128,51.6468085 Z M46.6563511,53.2819149 C46.712734,53.2255319 46.769117,53.2255319 46.881883,53.2255319 L47.1074149,53.2255319 C47.2201809,53.2255319 47.2765638,53.2255319 47.3329468,53.2819149 C47.3893298,53.3382979 47.3893298,53.3946809 47.3893298,53.5074468 L47.3893298,60.5553191 C47.3893298,61.2882979 47.2201809,61.8521277 46.938266,62.2468085 C46.6563511,62.6414894 46.0925213,62.8670213 45.3595426,62.8670213 L45.3031596,62.8670213 C45.1903936,62.8670213 45.1340106,62.8670213 45.0776277,62.8106383 C45.0212447,62.7542553 45.0212447,62.6978723 45.0212447,62.5851064 L45.0212447,62.4159574 C45.0212447,62.3031915 45.0212447,62.2468085 45.0776277,62.1904255 C45.1340106,62.1340426 45.1903936,62.1340426 45.3031596,62.1340426 L45.3595426,62.1340426 C45.8669894,62.1340426 46.2052872,62.0212766 46.3180532,61.7393617 C46.4872021,61.4574468 46.5435851,61.1191489 46.5435851,60.6117021 L46.5435851,53.5638298 C46.5435851,53.3946809 46.5999681,53.2819149 46.6563511,53.2819149 L46.6563511,53.2819149 Z" id="Fill-15"></path>
                <path d="M58.8914574,60.1606383 C58.8350745,60.2170213 58.7786915,60.2170213 58.6659255,60.2170213 L58.4403936,60.2170213 C58.3276277,60.2170213 58.2712447,60.2170213 58.2148617,60.1606383 C58.1584787,60.1042553 58.1584787,60.0478723 58.1584787,59.9351064 L58.1584787,56.1574468 C58.1584787,55.4244681 57.9893298,54.8606383 57.5946489,54.4659574 C57.2563511,54.0712766 56.7489043,53.8457447 56.0723085,53.8457447 C55.3957128,53.8457447 54.888266,54.0712766 54.4935851,54.4659574 C54.0989043,54.8606383 53.9297553,55.4244681 53.9297553,56.1574468 L53.9297553,59.9351064 C53.9297553,60.0478723 53.9297553,60.1042553 53.8733723,60.1606383 C53.8169894,60.2170213 53.7606064,60.2170213 53.6478404,60.2170213 L53.4223085,60.2170213 C53.3095426,60.2170213 53.2531596,60.2170213 53.1967766,60.1606383 C53.1403936,60.1042553 53.1403936,60.0478723 53.1403936,59.9351064 L53.1403936,53.4510638 C53.1403936,53.3382979 53.1403936,53.2819149 53.1967766,53.2255319 C53.2531596,53.1691489 53.3095426,53.1691489 53.4223085,53.1691489 L53.6478404,53.1691489 C53.7606064,53.1691489 53.8169894,53.1691489 53.8733723,53.2255319 C53.9297553,53.2819149 53.9297553,53.3382979 53.9297553,53.4510638 L53.9297553,54.0712766 C54.2116702,53.7329787 54.4935851,53.4510638 54.888266,53.2819149 C55.2265638,53.112766 55.6776277,53 56.2414574,53 C57.1435851,53 57.8201809,53.2819149 58.2712447,53.8457447 C58.7786915,54.4095745 59.0042234,55.1425532 59.0042234,56.0446809 L59.0042234,59.8787234 C59.0042234,60.0478723 58.9478404,60.1042553 58.8914574,60.1606383" id="Fill-16"></path>
                <path d="M61.8797553,60.1606383 C61.8233723,60.2170213 61.7669894,60.2170213 61.6542234,60.2170213 L61.4286915,60.2170213 C61.3159255,60.2170213 61.2595426,60.2170213 61.2031596,60.1606383 C61.1467766,60.1042553 61.1467766,60.0478723 61.1467766,59.9351064 L61.1467766,53.4510638 C61.1467766,53.3382979 61.1467766,53.2819149 61.2031596,53.2255319 C61.2595426,53.1691489 61.3159255,53.1691489 61.4286915,53.1691489 L61.6542234,53.1691489 C61.7669894,53.1691489 61.8233723,53.1691489 61.8797553,53.2255319 C61.9361383,53.2819149 61.9361383,53.3382979 61.9361383,53.4510638 L61.9361383,59.9351064 C61.9361383,60.0478723 61.9361383,60.1042553 61.8797553,60.1606383 L61.8797553,60.1606383 Z M62.0489043,51.6468085 C61.9925213,51.7031915 61.9361383,51.7031915 61.8233723,51.7031915 L61.3159255,51.7031915 C61.2031596,51.7031915 61.1467766,51.7031915 61.0903936,51.6468085 C61.0340106,51.5904255 61.0340106,51.5340426 61.0340106,51.4212766 L61.0340106,50.9138298 C61.0340106,50.8010638 61.0340106,50.7446809 61.0903936,50.6882979 C61.1467766,50.6319149 61.2031596,50.5755319 61.3159255,50.5755319 L61.8233723,50.5755319 C61.9361383,50.5755319 61.9925213,50.6319149 62.0489043,50.6882979 C62.1052872,50.7446809 62.1616702,50.8010638 62.1616702,50.9138298 L62.1616702,51.4212766 C62.1052872,51.5340426 62.1052872,51.5904255 62.0489043,51.6468085 L62.0489043,51.6468085 Z" id="Fill-17"></path>
                <path d="M66.9542234,51.7595745 C66.8978404,51.8159574 66.8414574,51.8159574 66.7286915,51.8159574 L66.0520957,51.8159574 C65.9393298,51.8159574 65.8829468,51.8159574 65.8265638,51.7595745 C65.7701809,51.7031915 65.7701809,51.6468085 65.7701809,51.5340426 L65.7701809,50.8574468 C65.7701809,50.7446809 65.7701809,50.6882979 65.8265638,50.6319149 C65.8829468,50.5755319 65.9393298,50.5191489 66.0520957,50.5191489 L66.7286915,50.5191489 C66.8414574,50.5191489 66.8978404,50.5755319 66.9542234,50.6319149 C67.0106064,50.6882979 67.0669894,50.7446809 67.0669894,50.8574468 L67.0669894,51.5340426 C67.0669894,51.6468085 67.0106064,51.7031915 66.9542234,51.7595745 L66.9542234,51.7595745 Z M69.0967766,59.5404255 C69.1531596,59.5968085 69.1531596,59.6531915 69.1531596,59.7659574 L69.1531596,59.9351064 C69.1531596,60.0478723 69.1531596,60.1042553 69.0967766,60.1606383 C69.0403936,60.2170213 68.9840106,60.2170213 68.8712447,60.2170213 L63.9095426,60.2170213 C63.7967766,60.2170213 63.7403936,60.2170213 63.6840106,60.1606383 C63.6276277,60.1042553 63.6276277,60.0478723 63.6276277,59.9351064 L63.6276277,59.7095745 C63.6276277,59.5968085 63.6840106,59.4840426 63.7967766,59.3148936 L67.7999681,54.0148936 L64.0786915,54.0148936 C63.9659255,54.0148936 63.9095426,54.0148936 63.8531596,53.9585106 C63.7967766,53.9021277 63.7967766,53.8457447 63.7967766,53.7329787 L63.7967766,53.5638298 C63.7967766,53.4510638 63.7967766,53.3946809 63.8531596,53.3382979 C63.9095426,53.2819149 63.9659255,53.2819149 64.0786915,53.2819149 L68.6457128,53.2819149 C68.7584787,53.2819149 68.8148617,53.2819149 68.8712447,53.3382979 C68.9276277,53.3946809 68.9276277,53.4510638 68.9276277,53.5638298 L68.9276277,53.7893617 C68.9276277,53.9021277 68.8712447,54.0148936 68.7584787,54.1840426 L64.8116702,59.4840426 L68.9276277,59.4840426 C68.9840106,59.4276596 69.0403936,59.4840426 69.0967766,59.5404255 L69.0967766,59.5404255 Z" id="Fill-18"></path>
                <path d="M80.3733723,59.1457447 C80.4297553,59.2021277 80.4861383,59.3148936 80.4861383,59.4276596 L80.4861383,59.9351064 C80.4861383,60.0478723 80.4297553,60.1042553 80.3733723,60.2170213 C80.3169894,60.2734043 80.2042234,60.3297872 80.0914574,60.3297872 L74.5659255,60.3297872 C74.4531596,60.3297872 74.3967766,60.2734043 74.2840106,60.2170213 C74.2276277,60.1606383 74.1712447,60.0478723 74.1712447,59.9351064 L74.1712447,51.1393617 C74.1712447,51.0265957 74.2276277,50.9702128 74.2840106,50.8574468 C74.3403936,50.8010638 74.4531596,50.7446809 74.5659255,50.7446809 L75.1297553,50.7446809 C75.2425213,50.7446809 75.2989043,50.8010638 75.4116702,50.8574468 C75.4680532,50.9138298 75.5244362,51.0265957 75.5244362,51.1393617 L75.5244362,59.0329787 L80.1478404,59.0329787 C80.2042234,59.0329787 80.2606064,59.0329787 80.3733723,59.1457447" id="Fill-19"></path>
                <path d="M83.1925213,59.0329787 L87.7595426,59.0329787 C87.8723085,59.0329787 87.9286915,59.0893617 88.0414574,59.1457447 C88.0978404,59.2021277 88.1542234,59.3148936 88.1542234,59.4276596 L88.1542234,59.9351064 C88.1542234,60.0478723 88.0978404,60.1042553 88.0414574,60.2170213 C87.9850745,60.2734043 87.8723085,60.3297872 87.7595426,60.3297872 L82.2340106,60.3297872 C82.1212447,60.3297872 82.0648617,60.2734043 81.9520957,60.2170213 C81.8957128,60.1606383 81.8393298,60.0478723 81.8393298,59.9351064 L81.8393298,51.1393617 C81.8393298,51.0265957 81.8957128,50.9702128 81.9520957,50.8574468 C82.0084787,50.8010638 82.1212447,50.7446809 82.2340106,50.7446809 L87.5903936,50.7446809 C87.7031596,50.7446809 87.7595426,50.8010638 87.8723085,50.8574468 C87.9286915,50.9138298 87.9850745,51.0265957 87.9850745,51.1393617 L87.9850745,51.6468085 C87.9850745,51.7595745 87.9286915,51.8159574 87.8723085,51.9287234 C87.8159255,51.9851064 87.7031596,52.0414894 87.5903936,52.0414894 L83.1361383,52.0414894 L83.1361383,54.9170213 L87.3084787,54.9170213 C87.4212447,54.9170213 87.4776277,54.9734043 87.5903936,55.0297872 C87.6467766,55.0861702 87.7031596,55.1989362 87.7031596,55.3117021 L87.7031596,55.8191489 C87.7031596,55.9319149 87.6467766,55.9882979 87.5903936,56.1010638 C87.5340106,56.1574468 87.4212447,56.2138298 87.3084787,56.2138298 L83.1361383,56.2138298 L83.1361383,59.0329787 L83.1925213,59.0329787" id="Fill-20"></path>
                <path d="M96.5552872,59.7095745 C96.6680532,59.8223404 96.6680532,59.8787234 96.6680532,59.9351064 C96.6680532,59.9914894 96.6116702,60.1042553 96.5552872,60.1606383 C96.4989043,60.2170213 96.4425213,60.2734043 96.3297553,60.2734043 L95.4840106,60.2734043 C95.3148617,60.2734043 95.1457128,60.2170213 94.9765638,60.0478723 L91.1425213,56.3829787 L91.1425213,59.8787234 C91.1425213,59.9914894 91.0861383,60.0478723 91.0297553,60.1606383 C90.9733723,60.2170213 90.8606064,60.2734043 90.7478404,60.2734043 L90.1840106,60.2734043 C90.0712447,60.2734043 90.0148617,60.2170213 89.9020957,60.1606383 C89.8457128,60.1042553 89.7893298,59.9914894 89.7893298,59.8787234 L89.7893298,51.0829787 C89.7893298,50.9702128 89.8457128,50.9138298 89.9020957,50.8010638 C89.9584787,50.7446809 90.0712447,50.6882979 90.1840106,50.6882979 L90.7478404,50.6882979 C90.8606064,50.6882979 90.9169894,50.7446809 91.0297553,50.8010638 C91.0861383,50.8574468 91.1425213,50.9702128 91.1425213,51.0829787 L91.1425213,54.2404255 L94.7510319,50.9138298 C94.8637979,50.8010638 95.0329468,50.6882979 95.2584787,50.6882979 L96.0478404,50.6882979 C96.1042234,50.6882979 96.2169894,50.7446809 96.2733723,50.8010638 C96.3297553,50.8574468 96.3861383,50.9138298 96.3861383,51.0265957 C96.3861383,51.0829787 96.3297553,51.1957447 96.2733723,51.2521277 L91.931883,55.2553191 L96.5552872,59.7095745" id="Fill-21"></path>
            </g>
        </g>
    </g>
</svg>