<?xml version="1.0" encoding="UTF-8"?>
<svg width="24px" height="24px" viewBox="0 0 24 24" version="1.1" xmlns="http://www.w3.org/2000/svg" xmlns:xlink="http://www.w3.org/1999/xlink">
    <!-- Generator: Sketch 41.2 (35397) - http://www.bohemiancoding.com/sketch -->
    <title>button/social_media_footer/facebook/hover</title>
    <desc>Created with Sketch.</desc>
    <defs></defs>
    <g id="elements" stroke="none" stroke-width="1" fill="none" fill-rule="evenodd">
        <g transform="translate(-358.000000, -628.000000)" id="button/social_media_footer/facebook/hover" fill="#9B9B9B">
            <path d="M370.000031,628 C363.361125,628 358,633.388903 358,640.000031 C358,646.638938 363.361125,652.000063 370.000031,652.000063 C376.61116,652.000063 382.000063,646.638938 382.000063,640.000031 C382.000063,633.388903 376.61116,628 370.000031,628 Z M371.000034,638.027804 L374.000042,638.027804 L373.805597,641.000034 L371.000034,641.000034 L371.000034,648.500054 L367.500025,648.500054 L367.500025,641.000034 L365.50002,641.000034 L365.50002,638.000026 L367.500025,638.000026 L367.500025,635.277797 C367.500025,633.277792 368.777806,631.500009 371.722258,631.500009 C373.166706,631.500009 374.000042,631.666676 374.000042,631.666676 L373.861153,634.500017 L372.22226,634.500017 C371.166701,634.500017 371.000034,635.027796 371.000034,635.861132 L371.000034,638.027804 Z"></path>
        </g>
    </g>
</svg>