<?xml version="1.0" encoding="UTF-8"?>
<svg width="24px" height="24px" viewBox="0 0 24 24" version="1.1" xmlns="http://www.w3.org/2000/svg" xmlns:xlink="http://www.w3.org/1999/xlink">
    <!-- Generator: Sketch 41.2 (35397) - http://www.bohemiancoding.com/sketch -->
    <title>button/social_media_footer/facebook/normal</title>
    <desc>Created with Sketch.</desc>
    <defs></defs>
    <g id="elements" stroke="none" stroke-width="1" fill="none" fill-rule="evenodd">
        <g transform="translate(-358.000000, -587.000000)" id="button/social_media_footer/facebook/normal" fill="#FFFFFF">
            <path d="M370.000031,587 C363.361125,587 358,592.388903 358,599.000031 C358,605.638938 363.361125,611.000063 370.000031,611.000063 C376.61116,611.000063 382.000063,605.638938 382.000063,599.000031 C382.000063,592.388903 376.61116,587 370.000031,587 Z M371.000034,597.027804 L374.000042,597.027804 L373.805597,600.000034 L371.000034,600.000034 L371.000034,607.500054 L367.500025,607.500054 L367.500025,600.000034 L365.50002,600.000034 L365.50002,597.000026 L367.500025,597.000026 L367.500025,594.277797 C367.500025,592.277792 368.777806,590.500009 371.722258,590.500009 C373.166706,590.500009 374.000042,590.666676 374.000042,590.666676 L373.861153,593.500017 L372.22226,593.500017 C371.166701,593.500017 371.000034,594.027796 371.000034,594.861132 L371.000034,597.027804 Z"></path>
        </g>
    </g>
</svg>