<?xml version="1.0" encoding="UTF-8"?>
<svg width="24px" height="24px" viewBox="0 0 24 24" version="1.1" xmlns="http://www.w3.org/2000/svg" xmlns:xlink="http://www.w3.org/1999/xlink">
    <!-- Generator: Sketch 41.2 (35397) - http://www.bohemiancoding.com/sketch -->
    <title>socialmedia/facebook/hover</title>
    <desc>Created with Sketch.</desc>
    <defs></defs>
    <g id="elements" stroke="none" stroke-width="1" fill="none" fill-rule="evenodd">
        <g transform="translate(-982.000000, -306.000000)" id="socialmedia/facebook/hover" fill="#777878">
            <path d="M994.000031,306 C987.361125,306 982,311.388903 982,318.000031 C982,324.638938 987.361125,330.000063 994.000031,330.000063 C1000.61116,330.000063 1006.00006,324.638938 1006.00006,318.000031 C1006.00006,311.388903 1000.61116,306 994.000031,306 Z M995.000034,316.027804 L998.000042,316.027804 L997.805597,319.000034 L995.000034,319.000034 L995.000034,326.500054 L991.500025,326.500054 L991.500025,319.000034 L989.50002,319.000034 L989.50002,316.000026 L991.500025,316.000026 L991.500025,313.277797 C991.500025,311.277792 992.777806,309.500009 995.722258,309.500009 C997.166706,309.500009 998.000042,309.666676 998.000042,309.666676 L997.861153,312.500017 L996.22226,312.500017 C995.166701,312.500017 995.000034,313.027796 995.000034,313.861132 L995.000034,316.027804 Z"></path>
        </g>
    </g>
</svg>