<?xml version="1.0" encoding="UTF-8"?>
<svg width="24px" height="24px" viewBox="0 0 24 24" version="1.1" xmlns="http://www.w3.org/2000/svg" xmlns:xlink="http://www.w3.org/1999/xlink">
    <!-- Generator: Sketch 41.2 (35397) - http://www.bohemiancoding.com/sketch -->
    <title>socialmedia/facebook/normal</title>
    <desc>Created with Sketch.</desc>
    <defs></defs>
    <g id="elements" stroke="none" stroke-width="1" fill="none" fill-rule="evenodd">
        <g transform="translate(-982.000000, -266.000000)" id="socialmedia/facebook/normal" fill="#242D47">
            <path d="M994.000031,266 C987.361125,266 982,271.388903 982,278.000031 C982,284.638938 987.361125,290.000063 994.000031,290.000063 C1000.61116,290.000063 1006.00006,284.638938 1006.00006,278.000031 C1006.00006,271.388903 1000.61116,266 994.000031,266 Z M995.000034,276.027804 L998.000042,276.027804 L997.805597,279.000034 L995.000034,279.000034 L995.000034,286.500054 L991.500025,286.500054 L991.500025,279.000034 L989.50002,279.000034 L989.50002,276.000026 L991.500025,276.000026 L991.500025,273.277797 C991.500025,271.277792 992.777806,269.500009 995.722258,269.500009 C997.166706,269.500009 998.000042,269.666676 998.000042,269.666676 L997.861153,272.500017 L996.22226,272.500017 C995.166701,272.500017 995.000034,273.027796 995.000034,273.861132 L995.000034,276.027804 Z"></path>
        </g>
    </g>
</svg>