<?xml version="1.0" encoding="UTF-8"?>
<svg width="24px" height="24px" viewBox="0 0 24 24" version="1.1" xmlns="http://www.w3.org/2000/svg" xmlns:xlink="http://www.w3.org/1999/xlink">
    <!-- Generator: Sketch 41.2 (35397) - http://www.bohemiancoding.com/sketch -->
    <title>button/facebook/hover</title>
    <desc>Created with Sketch.</desc>
    <defs></defs>
    <g id="elements" stroke="none" stroke-width="1" fill="none" fill-rule="evenodd">
        <g transform="translate(-608.000000, -90.000000)" id="button/facebook/hover" fill="#777878">
            <path d="M620.000031,90 C613.361125,90 608,95.388903 608,102.000031 C608,108.638938 613.361125,114.000063 620.000031,114.000063 C626.61116,114.000063 632.000063,108.638938 632.000063,102.000031 C632.000063,95.388903 626.61116,90 620.000031,90 Z M621.000034,100.027804 L624.000042,100.027804 L623.805597,103.000034 L621.000034,103.000034 L621.000034,110.500054 L617.500025,110.500054 L617.500025,103.000034 L615.50002,103.000034 L615.50002,100.000026 L617.500025,100.000026 L617.500025,97.2777969 C617.500025,95.2777916 618.777806,93.5000092 621.722258,93.5000092 C623.166706,93.5000092 624.000042,93.6666763 624.000042,93.6666763 L623.861153,96.500017 L622.22226,96.500017 C621.166701,96.500017 621.000034,97.0277962 621.000034,97.8611317 L621.000034,100.027804 Z"></path>
        </g>
    </g>
</svg>