<?xml version="1.0" encoding="UTF-8"?>
<svg width="24px" height="24px" viewBox="0 0 24 24" version="1.1" xmlns="http://www.w3.org/2000/svg" xmlns:xlink="http://www.w3.org/1999/xlink">
    <!-- Generator: Sketch 41.2 (35397) - http://www.bohemiancoding.com/sketch -->
    <title>button/facebook/normal</title>
    <desc>Created with Sketch.</desc>
    <defs></defs>
    <g id="elements" stroke="none" stroke-width="1" fill="none" fill-rule="evenodd">
        <g transform="translate(-608.000000, -48.000000)" id="button/facebook/normal" fill="#242D47">
            <path d="M620.000031,48 C613.361125,48 608,53.388903 608,60.0000315 C608,66.6389378 613.361125,72.0000629 620.000031,72.0000629 C626.61116,72.0000629 632.000063,66.6389378 632.000063,60.0000315 C632.000063,53.388903 626.61116,48 620.000031,48 Z M621.000034,58.0278041 L624.000042,58.0278041 L623.805597,61.0000341 L621.000034,61.0000341 L621.000034,68.5000538 L617.500025,68.5000538 L617.500025,61.0000341 L615.50002,61.0000341 L615.50002,58.0000262 L617.500025,58.0000262 L617.500025,55.2777969 C617.500025,53.2777916 618.777806,51.5000092 621.722258,51.5000092 C623.166706,51.5000092 624.000042,51.6666763 624.000042,51.6666763 L623.861153,54.500017 L622.22226,54.500017 C621.166701,54.500017 621.000034,55.0277962 621.000034,55.8611317 L621.000034,58.0278041 Z"></path>
        </g>
    </g>
</svg>