<?xml version="1.0" encoding="UTF-8"?>
<svg width="24px" height="24px" viewBox="0 0 24 24" version="1.1" xmlns="http://www.w3.org/2000/svg" xmlns:xlink="http://www.w3.org/1999/xlink">
    <!-- Generator: Sketch 41.2 (35397) - http://www.bohemiancoding.com/sketch -->
    <title>button/social_media_footer/youtube/hover</title>
    <desc>Created with Sketch.</desc>
    <defs></defs>
    <g id="elements" stroke="none" stroke-width="1" fill="none" fill-rule="evenodd">
        <g transform="translate(-428.000000, -628.000000)" id="button/social_media_footer/youtube/hover" fill="#9B9B9B">
            <path d="M440.000031,628 C433.361125,628 428,633.361125 428,640.000031 C428,646.638938 433.361125,652.000063 440.000031,652.000063 C446.638938,652.000063 452.000063,646.638938 452.000063,640.000031 C452.000063,633.361125 446.638938,628 440.000031,628 Z M440.000031,645.500046 C432.500012,645.500046 432.500012,645.500046 432.500012,640.000031 C432.500012,634.500017 432.500012,634.500017 440.000031,634.500017 C447.500051,634.500017 447.500051,634.500017 447.500051,640.000031 C447.500051,645.500046 447.500051,645.500046 440.000031,645.500046 Z M438.000026,643.000039 L443.000039,640.000031 L438.000026,637.000024 L438.000026,643.000039 Z"></path>
        </g>
    </g>
</svg>