<?xml version="1.0" encoding="UTF-8"?>
<svg width="24px" height="24px" viewBox="0 0 24 24" version="1.1" xmlns="http://www.w3.org/2000/svg" xmlns:xlink="http://www.w3.org/1999/xlink">
    <!-- Generator: Sketch 41.2 (35397) - http://www.bohemiancoding.com/sketch -->
    <title>button/social_media_footer/youtube/normal</title>
    <desc>Created with Sketch.</desc>
    <defs></defs>
    <g id="elements" stroke="none" stroke-width="1" fill="none" fill-rule="evenodd">
        <g transform="translate(-428.000000, -587.000000)" id="button/social_media_footer/youtube/normal" fill="#FFFFFF">
            <path d="M440.000031,587 C433.361125,587 428,592.361125 428,599.000031 C428,605.638938 433.361125,611.000063 440.000031,611.000063 C446.638938,611.000063 452.000063,605.638938 452.000063,599.000031 C452.000063,592.361125 446.638938,587 440.000031,587 Z M440.000031,604.500046 C432.500012,604.500046 432.500012,604.500046 432.500012,599.000031 C432.500012,593.500017 432.500012,593.500017 440.000031,593.500017 C447.500051,593.500017 447.500051,593.500017 447.500051,599.000031 C447.500051,604.500046 447.500051,604.500046 440.000031,604.500046 Z M438.000026,602.000039 L443.000039,599.000031 L438.000026,596.000024 L438.000026,602.000039 Z"></path>
        </g>
    </g>
</svg>