<?xml version="1.0" encoding="UTF-8"?>
<svg width="24px" height="24px" viewBox="0 0 24 24" version="1.1" xmlns="http://www.w3.org/2000/svg" xmlns:xlink="http://www.w3.org/1999/xlink">
    <!-- Generator: Sketch 41.2 (35397) - http://www.bohemiancoding.com/sketch -->
    <title>socialmedia/youtube/hover</title>
    <desc>Created with Sketch.</desc>
    <defs></defs>
    <g id="elements" stroke="none" stroke-width="1" fill="none" fill-rule="evenodd">
        <g transform="translate(-1052.000000, -306.000000)" id="socialmedia/youtube/hover" fill="#777878">
            <path d="M1064.00003,306 C1057.36113,306 1052,311.361125 1052,318.000031 C1052,324.638938 1057.36113,330.000063 1064.00003,330.000063 C1070.63894,330.000063 1076.00006,324.638938 1076.00006,318.000031 C1076.00006,311.361125 1070.63894,306 1064.00003,306 Z M1064.00003,323.500046 C1056.50001,323.500046 1056.50001,323.500046 1056.50001,318.000031 C1056.50001,312.500017 1056.50001,312.500017 1064.00003,312.500017 C1071.50005,312.500017 1071.50005,312.500017 1071.50005,318.000031 C1071.50005,323.500046 1071.50005,323.500046 1064.00003,323.500046 Z M1062.00003,321.000039 L1067.00004,318.000031 L1062.00003,315.000024 L1062.00003,321.000039 Z"></path>
        </g>
    </g>
</svg>