<?xml version="1.0" encoding="UTF-8"?>
<svg width="24px" height="24px" viewBox="0 0 24 24" version="1.1" xmlns="http://www.w3.org/2000/svg" xmlns:xlink="http://www.w3.org/1999/xlink">
    <!-- Generator: Sketch 41.2 (35397) - http://www.bohemiancoding.com/sketch -->
    <title>socialmedia/youtube/normal</title>
    <desc>Created with Sketch.</desc>
    <defs></defs>
    <g id="elements" stroke="none" stroke-width="1" fill="none" fill-rule="evenodd">
        <g transform="translate(-1052.000000, -266.000000)" id="socialmedia/youtube/normal" fill="#242D47">
            <path d="M1064.00003,266 C1057.36113,266 1052,271.361125 1052,278.000031 C1052,284.638938 1057.36113,290.000063 1064.00003,290.000063 C1070.63894,290.000063 1076.00006,284.638938 1076.00006,278.000031 C1076.00006,271.361125 1070.63894,266 1064.00003,266 Z M1064.00003,283.500046 C1056.50001,283.500046 1056.50001,283.500046 1056.50001,278.000031 C1056.50001,272.500017 1056.50001,272.500017 1064.00003,272.500017 C1071.50005,272.500017 1071.50005,272.500017 1071.50005,278.000031 C1071.50005,283.500046 1071.50005,283.500046 1064.00003,283.500046 Z M1062.00003,281.000039 L1067.00004,278.000031 L1062.00003,275.000024 L1062.00003,281.000039 Z"></path>
        </g>
    </g>
</svg>