<?xml version="1.0" encoding="UTF-8"?>
<svg width="24px" height="24px" viewBox="0 0 24 24" version="1.1" xmlns="http://www.w3.org/2000/svg" xmlns:xlink="http://www.w3.org/1999/xlink">
    <!-- Generator: Sketch 41.2 (35397) - http://www.bohemiancoding.com/sketch -->
    <title>socialmedia/linkedin/hover</title>
    <desc>Created with Sketch.</desc>
    <defs></defs>
    <g id="elements" stroke="none" stroke-width="1" fill="none" fill-rule="evenodd">
        <g transform="translate(-1087.000000, -306.000000)" id="socialmedia/linkedin/hover" fill="#777878">
            <path d="M1099.00003,306 C1092.36113,306 1087,311.361125 1087,318.000031 C1087,324.638938 1092.36113,330.000063 1099.00003,330.000063 C1105.63894,330.000063 1111.00006,324.638938 1111.00006,318.000031 C1111.00006,311.361125 1105.63894,306 1099.00003,306 Z M1095.50002,324.000047 L1092.50001,324.000047 L1092.50001,315.500025 L1095.50002,315.500025 L1095.50002,324.000047 Z M1094.00002,314.000021 L1093.97224,314.000021 C1092.77779,314.000021 1092.00001,313.222241 1092.00001,312.250016 C1092.00001,311.250014 1092.80557,310.500012 1094.00002,310.500012 C1095.22224,310.500012 1095.97225,311.250014 1096.00002,312.250016 C1096.00002,313.222241 1095.22224,314.000021 1094.00002,314.000021 Z M1106.50005,324.000047 L1103.50004,324.000047 L1103.50004,319.500035 C1103.50004,317.972254 1102.88893,317.50003 1101.97226,317.50003 C1101.05559,317.50003 1100.50004,318.27781 1100.50004,319.500035 L1100.50004,324.000047 L1097.50003,324.000047 L1097.50003,317.50003 C1097.50003,317.50003 1097.44447,315.833359 1097.41669,315.500025 L1100.38892,315.500025 L1100.50004,316.805584 C1100.88893,315.722248 1101.77782,315.000024 1103.00004,315.000024 C1105.13894,315.000024 1106.50005,316.750028 1106.50005,319.500035 L1106.50005,324.000047 Z"></path>
        </g>
    </g>
</svg>