<?xml version="1.0" encoding="UTF-8"?>
<svg width="24px" height="24px" viewBox="0 0 24 24" version="1.1" xmlns="http://www.w3.org/2000/svg" xmlns:xlink="http://www.w3.org/1999/xlink">
    <!-- Generator: Sketch 41.2 (35397) - http://www.bohemiancoding.com/sketch -->
    <title>socialmedia/linkedin/normal</title>
    <desc>Created with Sketch.</desc>
    <defs></defs>
    <g id="elements" stroke="none" stroke-width="1" fill="none" fill-rule="evenodd">
        <g transform="translate(-1087.000000, -266.000000)" id="socialmedia/linkedin/normal" fill="#242D47">
            <path d="M1099.00003,266 C1092.36113,266 1087,271.361125 1087,278.000031 C1087,284.638938 1092.36113,290.000063 1099.00003,290.000063 C1105.63894,290.000063 1111.00006,284.638938 1111.00006,278.000031 C1111.00006,271.361125 1105.63894,266 1099.00003,266 Z M1095.50002,284.000047 L1092.50001,284.000047 L1092.50001,275.500025 L1095.50002,275.500025 L1095.50002,284.000047 Z M1094.00002,274.000021 L1093.97224,274.000021 C1092.77779,274.000021 1092.00001,273.222241 1092.00001,272.250016 C1092.00001,271.250014 1092.80557,270.500012 1094.00002,270.500012 C1095.22224,270.500012 1095.97225,271.250014 1096.00002,272.250016 C1096.00002,273.222241 1095.22224,274.000021 1094.00002,274.000021 Z M1106.50005,284.000047 L1103.50004,284.000047 L1103.50004,279.500035 C1103.50004,277.972254 1102.88893,277.50003 1101.97226,277.50003 C1101.05559,277.50003 1100.50004,278.27781 1100.50004,279.500035 L1100.50004,284.000047 L1097.50003,284.000047 L1097.50003,277.50003 C1097.50003,277.50003 1097.44447,275.833359 1097.41669,275.500025 L1100.38892,275.500025 L1100.50004,276.805584 C1100.88893,275.722248 1101.77782,275.000024 1103.00004,275.000024 C1105.13894,275.000024 1106.50005,276.750028 1106.50005,279.500035 L1106.50005,284.000047 Z"></path>
        </g>
    </g>
</svg>