<?xml version="1.0" encoding="UTF-8"?>
<svg width="24px" height="24px" viewBox="0 0 24 24" version="1.1" xmlns="http://www.w3.org/2000/svg" xmlns:xlink="http://www.w3.org/1999/xlink">
    <!-- Generator: Sketch 41.2 (35397) - http://www.bohemiancoding.com/sketch -->
    <title>button/social_media_footer/instagram/hover</title>
    <desc>Created with Sketch.</desc>
    <defs></defs>
    <g id="elements" stroke="none" stroke-width="1" fill="none" fill-rule="evenodd">
        <g transform="translate(-393.000000, -628.000000)" id="button/social_media_footer/instagram/hover" fill="#9B9B9B">
            <path d="M405.000031,635.50002 C402.500025,635.50002 400.50002,637.527803 400.50002,640.000031 C400.50002,642.500038 402.500025,644.500043 405.000031,644.500043 C407.47226,644.500043 409.500043,642.500038 409.500043,640.000031 C409.500043,637.527803 407.47226,635.50002 405.000031,635.50002 Z M416.13895,635.50002 C414.333389,631.111119 410.027822,628 405.000031,628 C399.972241,628 395.638896,631.111119 393.861113,635.50002 L400.305575,635.50002 C401.500022,634.277794 403.166693,633.500014 405.000031,633.500014 C406.83337,633.500014 408.500041,634.277794 409.694488,635.50002 L416.13895,635.50002 Z M417.000063,640.000031 C417.000063,639.138918 416.916729,638.305583 416.750062,637.500025 L411.000047,637.500025 C411.333381,638.277805 411.500049,639.11114 411.500049,640.000031 C411.500049,643.583374 408.583374,646.500049 405.000031,646.500049 C401.416689,646.500049 398.500014,643.583374 398.500014,640.000031 C398.500014,639.11114 398.666682,638.277805 399.000016,637.500025 L393.250001,637.500025 C393.083334,638.305583 393,639.138918 393,640.000031 C393,646.638938 398.361125,652.000063 405.000031,652.000063 C411.638938,652.000063 417.000063,646.638938 417.000063,640.000031 Z"></path>
        </g>
    </g>
</svg>