<?xml version="1.0" encoding="UTF-8"?>
<svg width="24px" height="24px" viewBox="0 0 24 24" version="1.1" xmlns="http://www.w3.org/2000/svg" xmlns:xlink="http://www.w3.org/1999/xlink">
    <!-- Generator: Sketch 41.2 (35397) - http://www.bohemiancoding.com/sketch -->
    <title>button/social_media_footer/instagram/normal</title>
    <desc>Created with Sketch.</desc>
    <defs></defs>
    <g id="elements" stroke="none" stroke-width="1" fill="none" fill-rule="evenodd">
        <g transform="translate(-393.000000, -587.000000)" id="button/social_media_footer/instagram/normal" fill="#FFFFFF">
            <path d="M405.000031,594.50002 C402.500025,594.50002 400.50002,596.527803 400.50002,599.000031 C400.50002,601.500038 402.500025,603.500043 405.000031,603.500043 C407.47226,603.500043 409.500043,601.500038 409.500043,599.000031 C409.500043,596.527803 407.47226,594.50002 405.000031,594.50002 Z M416.13895,594.50002 C414.333389,590.111119 410.027822,587 405.000031,587 C399.972241,587 395.638896,590.111119 393.861113,594.50002 L400.305575,594.50002 C401.500022,593.277794 403.166693,592.500014 405.000031,592.500014 C406.83337,592.500014 408.500041,593.277794 409.694488,594.50002 L416.13895,594.50002 Z M417.000063,599.000031 C417.000063,598.138918 416.916729,597.305583 416.750062,596.500025 L411.000047,596.500025 C411.333381,597.277805 411.500049,598.11114 411.500049,599.000031 C411.500049,602.583374 408.583374,605.500049 405.000031,605.500049 C401.416689,605.500049 398.500014,602.583374 398.500014,599.000031 C398.500014,598.11114 398.666682,597.277805 399.000016,596.500025 L393.250001,596.500025 C393.083334,597.305583 393,598.138918 393,599.000031 C393,605.638938 398.361125,611.000063 405.000031,611.000063 C411.638938,611.000063 417.000063,605.638938 417.000063,599.000031 Z"></path>
        </g>
    </g>
</svg>