<?xml version="1.0" encoding="UTF-8"?>
<svg width="24px" height="24px" viewBox="0 0 24 24" version="1.1" xmlns="http://www.w3.org/2000/svg" xmlns:xlink="http://www.w3.org/1999/xlink">
    <!-- Generator: Sketch 41.2 (35397) - http://www.bohemiancoding.com/sketch -->
    <title>socialmedia/instagram/hover</title>
    <desc>Created with Sketch.</desc>
    <defs></defs>
    <g id="elements" stroke="none" stroke-width="1" fill="none" fill-rule="evenodd">
        <g transform="translate(-1017.000000, -306.000000)" id="socialmedia/instagram/hover" fill="#777878">
            <path d="M1029.00003,313.50002 C1026.50002,313.50002 1024.50002,315.527803 1024.50002,318.000031 C1024.50002,320.500038 1026.50002,322.500043 1029.00003,322.500043 C1031.47226,322.500043 1033.50004,320.500038 1033.50004,318.000031 C1033.50004,315.527803 1031.47226,313.50002 1029.00003,313.50002 Z M1040.13895,313.50002 C1038.33339,309.111119 1034.02782,306 1029.00003,306 C1023.97224,306 1019.6389,309.111119 1017.86111,313.50002 L1024.30557,313.50002 C1025.50002,312.277794 1027.16669,311.500014 1029.00003,311.500014 C1030.83337,311.500014 1032.50004,312.277794 1033.69449,313.50002 L1040.13895,313.50002 Z M1041.00006,318.000031 C1041.00006,317.138918 1040.91673,316.305583 1040.75006,315.500025 L1035.00005,315.500025 C1035.33338,316.277805 1035.50005,317.11114 1035.50005,318.000031 C1035.50005,321.583374 1032.58337,324.500049 1029.00003,324.500049 C1025.41669,324.500049 1022.50001,321.583374 1022.50001,318.000031 C1022.50001,317.11114 1022.66668,316.277805 1023.00002,315.500025 L1017.25,315.500025 C1017.08333,316.305583 1017,317.138918 1017,318.000031 C1017,324.638938 1022.36113,330.000063 1029.00003,330.000063 C1035.63894,330.000063 1041.00006,324.638938 1041.00006,318.000031 Z"></path>
        </g>
    </g>
</svg>