<?xml version="1.0" encoding="UTF-8"?>
<svg width="24px" height="24px" viewBox="0 0 24 24" version="1.1" xmlns="http://www.w3.org/2000/svg" xmlns:xlink="http://www.w3.org/1999/xlink">
    <!-- Generator: Sketch 41.2 (35397) - http://www.bohemiancoding.com/sketch -->
    <title>socialmedia/instagram/normal</title>
    <desc>Created with Sketch.</desc>
    <defs></defs>
    <g id="elements" stroke="none" stroke-width="1" fill="none" fill-rule="evenodd">
        <g transform="translate(-1017.000000, -266.000000)" id="socialmedia/instagram/normal" fill="#242D47">
            <path d="M1029.00003,273.50002 C1026.50002,273.50002 1024.50002,275.527803 1024.50002,278.000031 C1024.50002,280.500038 1026.50002,282.500043 1029.00003,282.500043 C1031.47226,282.500043 1033.50004,280.500038 1033.50004,278.000031 C1033.50004,275.527803 1031.47226,273.50002 1029.00003,273.50002 Z M1040.13895,273.50002 C1038.33339,269.111119 1034.02782,266 1029.00003,266 C1023.97224,266 1019.6389,269.111119 1017.86111,273.50002 L1024.30557,273.50002 C1025.50002,272.277794 1027.16669,271.500014 1029.00003,271.500014 C1030.83337,271.500014 1032.50004,272.277794 1033.69449,273.50002 L1040.13895,273.50002 Z M1041.00006,278.000031 C1041.00006,277.138918 1040.91673,276.305583 1040.75006,275.500025 L1035.00005,275.500025 C1035.33338,276.277805 1035.50005,277.11114 1035.50005,278.000031 C1035.50005,281.583374 1032.58337,284.500049 1029.00003,284.500049 C1025.41669,284.500049 1022.50001,281.583374 1022.50001,278.000031 C1022.50001,277.11114 1022.66668,276.277805 1023.00002,275.500025 L1017.25,275.500025 C1017.08333,276.305583 1017,277.138918 1017,278.000031 C1017,284.638938 1022.36113,290.000063 1029.00003,290.000063 C1035.63894,290.000063 1041.00006,284.638938 1041.00006,278.000031 Z"></path>
        </g>
    </g>
</svg>