<?xml version="1.0" encoding="UTF-8"?>
<svg width="24px" height="24px" viewBox="0 0 24 24" version="1.1" xmlns="http://www.w3.org/2000/svg" xmlns:xlink="http://www.w3.org/1999/xlink">
    <!-- Generator: Sketch 41.2 (35397) - http://www.bohemiancoding.com/sketch -->
    <title>button/social_media_footer/linkedin/hover</title>
    <desc>Created with Sketch.</desc>
    <defs></defs>
    <g id="elements" stroke="none" stroke-width="1" fill="none" fill-rule="evenodd">
        <g transform="translate(-463.000000, -628.000000)" id="button/social_media_footer/linkedin/hover" fill="#9B9B9B">
            <path d="M475.000031,628 C468.361125,628 463,633.361125 463,640.000031 C463,646.638938 468.361125,652.000063 475.000031,652.000063 C481.638938,652.000063 487.000063,646.638938 487.000063,640.000031 C487.000063,633.361125 481.638938,628 475.000031,628 Z M471.500022,646.000047 L468.500014,646.000047 L468.500014,637.500025 L471.500022,637.500025 L471.500022,646.000047 Z M470.000018,636.000021 L469.972241,636.000021 C468.777793,636.000021 468.000013,635.222241 468.000013,634.250016 C468.000013,633.250014 468.805571,632.500012 470.000018,632.500012 C471.222244,632.500012 471.972246,633.250014 472.000024,634.250016 C472.000024,635.222241 471.222244,636.000021 470.000018,636.000021 Z M482.500051,646.000047 L479.500043,646.000047 L479.500043,641.500035 C479.500043,639.972254 478.888931,639.50003 477.972261,639.50003 C477.055592,639.50003 476.500035,640.27781 476.500035,641.500035 L476.500035,646.000047 L473.500028,646.000047 L473.500028,639.50003 C473.500028,639.50003 473.444472,637.833359 473.416694,637.500025 L476.388924,637.500025 L476.500035,638.805584 C476.888925,637.722248 477.777817,637.000024 479.000042,637.000024 C481.138936,637.000024 482.500051,638.750028 482.500051,641.500035 L482.500051,646.000047 Z"></path>
        </g>
    </g>
</svg>