<?xml version="1.0" encoding="UTF-8"?>
<svg width="24px" height="24px" viewBox="0 0 24 24" version="1.1" xmlns="http://www.w3.org/2000/svg" xmlns:xlink="http://www.w3.org/1999/xlink">
    <!-- Generator: Sketch 41.2 (35397) - http://www.bohemiancoding.com/sketch -->
    <title>button/social_media_footer/linkedin/normal</title>
    <desc>Created with Sketch.</desc>
    <defs></defs>
    <g id="elements" stroke="none" stroke-width="1" fill="none" fill-rule="evenodd">
        <g transform="translate(-463.000000, -587.000000)" id="button/social_media_footer/linkedin/normal" fill="#FFFFFF">
            <path d="M475.000031,587 C468.361125,587 463,592.361125 463,599.000031 C463,605.638938 468.361125,611.000063 475.000031,611.000063 C481.638938,611.000063 487.000063,605.638938 487.000063,599.000031 C487.000063,592.361125 481.638938,587 475.000031,587 Z M471.500022,605.000047 L468.500014,605.000047 L468.500014,596.500025 L471.500022,596.500025 L471.500022,605.000047 Z M470.000018,595.000021 L469.972241,595.000021 C468.777793,595.000021 468.000013,594.222241 468.000013,593.250016 C468.000013,592.250014 468.805571,591.500012 470.000018,591.500012 C471.222244,591.500012 471.972246,592.250014 472.000024,593.250016 C472.000024,594.222241 471.222244,595.000021 470.000018,595.000021 Z M482.500051,605.000047 L479.500043,605.000047 L479.500043,600.500035 C479.500043,598.972254 478.888931,598.50003 477.972261,598.50003 C477.055592,598.50003 476.500035,599.27781 476.500035,600.500035 L476.500035,605.000047 L473.500028,605.000047 L473.500028,598.50003 C473.500028,598.50003 473.444472,596.833359 473.416694,596.500025 L476.388924,596.500025 L476.500035,597.805584 C476.888925,596.722248 477.777817,596.000024 479.000042,596.000024 C481.138936,596.000024 482.500051,597.750028 482.500051,600.500035 L482.500051,605.000047 Z"></path>
        </g>
    </g>
</svg>